<svg width="21" height="17" viewBox="0 0 21 17" fill="none" xmlns="http://www.w3.org/2000/svg">
<path d="M0 1.72581C0 0.790486 0.758228 0.032259 1.69355 0.032259H19.3065C20.2418 0.032259 21 0.790486 21 1.72581C21 2.66113 20.2418 3.41936 19.3065 3.41936H1.69355C0.758227 3.41936 0 2.66113 0 1.72581Z" fill="white"/>
<path d="M0 8.5C0 7.56468 0.758228 6.80645 1.69355 6.80645H19.3065C20.2418 6.80645 21 7.56468 21 8.5C21 9.43532 20.2418 10.1936 19.3065 10.1936H1.69355C0.758227 10.1936 0 9.43532 0 8.5Z" fill="white"/>
<path d="M0 15.2742C0 14.3389 0.758228 13.5806 1.69355 13.5806H19.3065C20.2418 13.5806 21 14.3389 21 15.2742C21 16.2095 20.2418 16.9677 19.3065 16.9677H1.69355C0.758227 16.9677 0 16.2095 0 15.2742Z" fill="white"/>
</svg>
