<?xml version="1.0" encoding="utf-8"?>
<!-- Generator: Adobe Illustrator 23.0.0, SVG Export Plug-In . SVG Version: 6.00 Build 0)  -->
<svg version="1.1" id="Capa_1" xmlns="http://www.w3.org/2000/svg" xmlns:xlink="http://www.w3.org/1999/xlink" x="0px" y="0px"
	 viewBox="0 0 168 21" style="enable-background:new 0 0 168 21;" xml:space="preserve">
<style type="text/css">
	.st0{fill:#9D0000;}
	.st1{fill:#FF0000;}
	.st2{fill:#FFFFFF;}
</style>
<path class="st0" d="M167,8.8c1.3,0.8,1.3,2.7,0,3.5l-12.6,7.3c-1.3,0.8-3-0.2-3-1.7V3.2c0-1.5,1.7-2.5,3-1.7L167,8.8z"/>
<path class="st1" d="M158.9,8.8c1.3,0.8,1.3,2.7,0,3.5l-12.6,7.3c-1.3,0.8-3-0.2-3-1.7V3.2c0-1.5,1.7-2.5,3-1.7L158.9,8.8z"/>
<path class="st2" d="M0.8,1.5h4.4l3.7,9H9l3.7-9H17V16h-3.4V7.1h-0.1L10,15.9H7.8L4.3,7H4.2v9H0.8V1.5z"/>
<path class="st2" d="M24.3,16.2c-1.1,0-2.1-0.2-3-0.7c-0.8-0.5-1.5-1.1-1.9-2c-0.4-0.8-0.7-1.8-0.7-2.9c0-1.1,0.2-2.1,0.7-2.9
	c0.4-0.8,1.1-1.5,1.9-2c0.8-0.5,1.8-0.7,3-0.7c1.1,0,2.1,0.2,2.9,0.7c0.8,0.5,1.5,1.1,1.9,2c0.4,0.8,0.7,1.8,0.7,2.9
	c0,1.1-0.2,2.1-0.7,2.9c-0.4,0.8-1.1,1.5-1.9,2C26.4,16,25.5,16.2,24.3,16.2z M24.3,13.6c0.4,0,0.8-0.1,1.1-0.4
	c0.3-0.3,0.5-0.6,0.7-1.1c0.2-0.5,0.2-1,0.2-1.6c0-0.6-0.1-1.1-0.2-1.6c-0.2-0.5-0.4-0.8-0.7-1.1c-0.3-0.3-0.6-0.4-1.1-0.4
	c-0.4,0-0.8,0.1-1.1,0.4c-0.3,0.3-0.5,0.6-0.7,1.1c-0.2,0.5-0.2,1-0.2,1.6c0,0.6,0.1,1.1,0.2,1.6c0.2,0.5,0.4,0.8,0.7,1.1
	C23.5,13.5,23.9,13.6,24.3,13.6z"/>
<path class="st2" d="M41.8,5.1L38.1,16h-4L30.4,5.1H34l2,7.5h0.1l2-7.5H41.8z"/>
<path class="st2" d="M43.2,16V5.1h3.5V16H43.2z M44.9,3.8c-0.5,0-0.9-0.2-1.3-0.5c-0.4-0.3-0.5-0.7-0.5-1.2c0-0.5,0.2-0.8,0.5-1.2
	c0.4-0.3,0.8-0.5,1.3-0.5c0.5,0,0.9,0.2,1.3,0.5c0.4,0.3,0.5,0.7,0.5,1.2c0,0.5-0.2,0.9-0.5,1.2C45.8,3.7,45.4,3.8,44.9,3.8z"/>
<path class="st2" d="M59.1,11.4v-0.9c0-0.9-0.1-1.7-0.4-2.4c-0.3-0.7-0.6-1.3-1.1-1.8c-0.5-0.5-1-0.8-1.7-1.1
	c-0.6-0.2-1.4-0.4-2.1-0.4c-1.1,0-2.1,0.2-2.9,0.7c-0.8,0.5-1.4,1.1-1.9,2c-0.4,0.8-0.7,1.8-0.7,3c0,1.2,0.2,2.2,0.7,3
	c0.4,0.8,1.1,1.5,1.9,1.9c0.8,0.4,1.8,0.7,3,0.7c1,0,1.8-0.1,2.5-0.4c0.7-0.3,1.3-0.7,1.8-1.2c0.4-0.5,0.7-1.2,0.9-1.9l-3.2-0.1
	c-0.1,0.2-0.2,0.4-0.4,0.6c-0.2,0.2-0.4,0.3-0.6,0.4c-0.3,0.1-0.5,0.1-0.8,0.1c-0.4,0-0.8-0.1-1.2-0.3c-0.3-0.2-0.6-0.4-0.7-0.8
	c-0.2-0.3-0.3-0.7-0.3-1.2v-0.1H59.1z M52.9,7.7c0.3-0.2,0.7-0.3,1-0.3c0.4,0,0.7,0.1,1,0.2c0.3,0.2,0.5,0.4,0.7,0.7
	c0.2,0.3,0.3,0.6,0.3,1h-4c0-0.4,0.1-0.7,0.3-0.9C52.3,8.1,52.6,7.9,52.9,7.7z"/>
<path class="st2" d="M65.2,16V1.5h3.5v11.7h6.1V16H65.2z"/>
<path class="st2" d="M76.6,16V5.1h3.5V16H76.6z M78.3,3.8c-0.5,0-0.9-0.2-1.3-0.5c-0.4-0.3-0.5-0.7-0.5-1.2c0-0.5,0.2-0.8,0.5-1.2
	c0.4-0.3,0.8-0.5,1.3-0.5c0.5,0,0.9,0.2,1.3,0.5c0.4,0.3,0.5,0.7,0.5,1.2c0,0.5-0.2,0.9-0.5,1.2C79.2,3.7,78.8,3.8,78.3,3.8z"/>
<path class="st2" d="M82.3,16V1.5h3.5V7h0.1c0.1-0.3,0.3-0.7,0.6-1c0.3-0.3,0.6-0.6,1-0.8c0.4-0.2,0.9-0.3,1.5-0.3
	c0.8,0,1.5,0.2,2.1,0.6c0.7,0.4,1.2,1,1.6,1.8c0.4,0.8,0.6,1.9,0.6,3.2c0,1.2-0.2,2.3-0.6,3.1c-0.4,0.8-0.9,1.5-1.6,1.9
	c-0.7,0.4-1.4,0.6-2.2,0.6c-0.5,0-1-0.1-1.4-0.3c-0.4-0.2-0.7-0.4-1-0.7c-0.3-0.3-0.5-0.6-0.6-0.9h-0.1V16H82.3z M85.7,10.5
	c0,0.6,0.1,1.1,0.2,1.5c0.2,0.4,0.4,0.8,0.7,1c0.3,0.2,0.7,0.4,1.1,0.4c0.4,0,0.8-0.1,1.1-0.4c0.3-0.2,0.5-0.6,0.7-1
	c0.2-0.4,0.2-0.9,0.2-1.5c0-0.6-0.1-1.1-0.2-1.5c-0.2-0.4-0.4-0.8-0.7-1c-0.3-0.2-0.7-0.4-1.1-0.4c-0.4,0-0.8,0.1-1.1,0.3
	c-0.3,0.2-0.5,0.6-0.7,1C85.7,9.4,85.7,9.9,85.7,10.5z"/>
<path class="st2" d="M95.1,16V5.1h3.4v2h0.1c0.2-0.7,0.5-1.3,1-1.6c0.4-0.4,1-0.5,1.6-0.5c0.2,0,0.3,0,0.5,0c0.2,0,0.3,0,0.5,0.1v3
	C101.9,8,101.7,8,101.4,8c-0.3,0-0.5,0-0.7,0c-0.4,0-0.8,0.1-1.1,0.3c-0.3,0.2-0.6,0.4-0.8,0.8c-0.2,0.3-0.3,0.7-0.3,1.1V16H95.1z"
	/>
<path class="st2" d="M106.1,16.2c-0.7,0-1.3-0.1-1.9-0.3c-0.5-0.2-1-0.6-1.3-1.1c-0.3-0.5-0.5-1.1-0.5-1.8c0-0.6,0.1-1.1,0.3-1.5
	c0.2-0.4,0.5-0.8,0.9-1s0.8-0.5,1.3-0.6c0.5-0.1,1-0.2,1.6-0.3c0.6-0.1,1.1-0.1,1.5-0.2c0.4-0.1,0.7-0.2,0.8-0.3
	c0.2-0.1,0.3-0.3,0.3-0.5v0c0-0.4-0.1-0.6-0.4-0.8c-0.3-0.2-0.6-0.3-1-0.3c-0.5,0-0.8,0.1-1.1,0.3c-0.3,0.2-0.5,0.5-0.5,0.8L103,8.4
	c0.1-0.7,0.3-1.3,0.7-1.8c0.4-0.5,0.9-0.9,1.6-1.2c0.7-0.3,1.5-0.5,2.5-0.5c0.7,0,1.3,0.1,1.9,0.2c0.6,0.2,1.1,0.4,1.5,0.7
	c0.4,0.3,0.8,0.7,1,1.1c0.2,0.4,0.4,1,0.4,1.5V16h-3.3v-1.5h-0.1c-0.2,0.4-0.4,0.7-0.7,0.9c-0.3,0.3-0.7,0.4-1.1,0.6
	C107.1,16.1,106.6,16.2,106.1,16.2z M107.2,13.9c0.4,0,0.7-0.1,1-0.2c0.3-0.2,0.5-0.4,0.7-0.6c0.2-0.3,0.3-0.6,0.3-0.9v-1
	c-0.1,0.1-0.2,0.1-0.4,0.1c-0.1,0-0.3,0.1-0.5,0.1c-0.2,0-0.3,0.1-0.5,0.1c-0.2,0-0.3,0.1-0.5,0.1c-0.3,0.1-0.6,0.1-0.8,0.2
	c-0.2,0.1-0.4,0.3-0.5,0.4c-0.1,0.2-0.2,0.4-0.2,0.6c0,0.4,0.1,0.6,0.4,0.8C106.5,13.8,106.8,13.9,107.2,13.9z"/>
<path class="st2" d="M114.8,16V5.1h3.4v2h0.1c0.2-0.7,0.5-1.3,1-1.6c0.5-0.4,1-0.5,1.6-0.5c0.2,0,0.3,0,0.5,0c0.2,0,0.3,0,0.5,0.1v3
	C121.6,8,121.4,8,121.1,8c-0.3,0-0.5,0-0.7,0c-0.4,0-0.8,0.1-1.1,0.3c-0.3,0.2-0.6,0.4-0.8,0.8c-0.2,0.3-0.3,0.7-0.3,1.1V16H114.8z"
	/>
<path class="st2" d="M125.7,20.1c-0.4,0-0.8,0-1.2-0.1c-0.4-0.1-0.7-0.1-1-0.2l0.8-2.5c0.3,0.1,0.6,0.2,0.9,0.2c0.3,0,0.5,0,0.7-0.1
	c0.2-0.1,0.4-0.3,0.5-0.6l0.1-0.3l-3.9-11.3h3.6l2,7.8h0.1l2-7.8h3.7L130,17c-0.2,0.6-0.5,1.1-0.8,1.6c-0.4,0.5-0.8,0.8-1.4,1.1
	C127.2,20,126.5,20.1,125.7,20.1z"/>
</svg>
